# Exported from Wings 3D 1.4.1
mtllib pointer.mtl
o cube1
#8 vertices, 6 faces
v -0.10000000 0.0000000e+0 0.10000000
v -0.19553798 3.09553798 0.19553798
v 0.19553798 3.09553798 0.19553798
v 0.10000000 0.0000000e+0 0.10000000
v -0.10000000 0.0000000e+0 -0.10000000
v -0.19553798 3.09553798 -0.19553798
v 0.19553798 3.09553798 -0.19553798
v 0.10000000 0.0000000e+0 -0.10000000
vn 0.0000000e+0 -3.0848439e-2 0.99952407
vn 0.0000000e+0 -1.00000000 0.0000000e+0
vn -0.99952407 -3.0848439e-2 0.0000000e+0
vn 0.0000000e+0 -3.0848439e-2 0.99952407
vn 0.0000000e+0 1.00000000 0.0000000e+0
vn -0.99952407 -3.0848439e-2 0.0000000e+0
vn 0.0000000e+0 -3.0848439e-2 0.99952407
vn 0.99952407 -3.0848439e-2 0.0000000e+0
vn 0.0000000e+0 1.00000000 0.0000000e+0
vn 0.0000000e+0 -3.0848439e-2 0.99952407
vn 0.99952407 -3.0848439e-2 0.0000000e+0
vn 0.0000000e+0 -1.00000000 0.0000000e+0
vn 0.0000000e+0 -1.00000000 0.0000000e+0
vn 0.0000000e+0 -3.0848439e-2 -0.99952407
vn -0.99952407 -3.0848439e-2 0.0000000e+0
vn 0.0000000e+0 1.00000000 0.0000000e+0
vn 0.0000000e+0 -3.0848439e-2 -0.99952407
vn -0.99952407 -3.0848439e-2 0.0000000e+0
vn 0.99952407 -3.0848439e-2 0.0000000e+0
vn 0.0000000e+0 1.00000000 0.0000000e+0
vn 0.0000000e+0 -3.0848439e-2 -0.99952407
vn 0.99952407 -3.0848439e-2 0.0000000e+0
vn 0.0000000e+0 -1.00000000 0.0000000e+0
vn 0.0000000e+0 -3.0848439e-2 -0.99952407
g cube1_default
usemtl default
s 1
f 1//1 4//10 3//7 2//4
f 6//17 7//21 8//24 5//14
s 2
f 2//6 6//18 5//15 1//3
f 4//11 8//22 7//19 3//8
s 3
f 1//2 5//13 8//23 4//12
f 3//9 7//20 6//16 2//5
