# Exported from Wings 3D 1.4.1
mtllib store.mtl
o cube7
#8 vertices, 6 faces
v 0.97647111 0.97688889 0.92000000
v 0.97647111 1.69511111 0.92000000
v 1.05375111 1.69511111 0.92000000
v 1.05375111 0.97688889 0.92000000
v 0.97647111 0.97688889 -0.92000000
v 0.97647111 1.69511111 -0.92000000
v 1.05375111 1.69511111 -0.92000000
v 1.05375111 0.97688889 -0.92000000
vn 0.0000000e+0 0.0000000e+0 1.00000000
vn 0.0000000e+0 -1.00000000 0.0000000e+0
vn -1.00000000 0.0000000e+0 0.0000000e+0
vn 0.0000000e+0 0.0000000e+0 1.00000000
vn 0.0000000e+0 1.00000000 0.0000000e+0
vn -1.00000000 0.0000000e+0 0.0000000e+0
vn 0.0000000e+0 0.0000000e+0 1.00000000
vn 1.00000000 0.0000000e+0 0.0000000e+0
vn 0.0000000e+0 1.00000000 0.0000000e+0
vn 0.0000000e+0 0.0000000e+0 1.00000000
vn 1.00000000 0.0000000e+0 0.0000000e+0
vn 0.0000000e+0 -1.00000000 0.0000000e+0
vn 0.0000000e+0 -1.00000000 0.0000000e+0
vn 0.0000000e+0 0.0000000e+0 -1.00000000
vn -1.00000000 0.0000000e+0 0.0000000e+0
vn 0.0000000e+0 1.00000000 0.0000000e+0
vn 0.0000000e+0 0.0000000e+0 -1.00000000
vn -1.00000000 0.0000000e+0 0.0000000e+0
vn 1.00000000 0.0000000e+0 0.0000000e+0
vn 0.0000000e+0 1.00000000 0.0000000e+0
vn 0.0000000e+0 0.0000000e+0 -1.00000000
vn 1.00000000 0.0000000e+0 0.0000000e+0
vn 0.0000000e+0 -1.00000000 0.0000000e+0
vn 0.0000000e+0 0.0000000e+0 -1.00000000
g cube7_default
usemtl default
s 1
f 1//1 4//10 3//7 2//4
f 6//17 7//21 8//24 5//14
s 2
f 2//6 6//18 5//15 1//3
f 4//11 8//22 7//19 3//8
s 3
f 1//2 5//13 8//23 4//12
f 3//9 7//20 6//16 2//5
o cube6
#8 vertices, 6 faces
v -0.93800000 1.1922667e-2 0.93800000
v -0.93800000 0.92674400 0.93800000
v 0.93800000 0.92674400 0.93800000
v 0.93800000 1.1922667e-2 0.93800000
v -0.93800000 1.1922667e-2 -0.93800000
v -0.93800000 0.92674400 -0.93800000
v 0.93800000 0.92674400 -0.93800000
v 0.93800000 1.1922667e-2 -0.93800000
vn 0.0000000e+0 0.0000000e+0 1.00000000
vn 0.0000000e+0 -1.00000000 0.0000000e+0
vn -1.00000000 0.0000000e+0 0.0000000e+0
vn 0.0000000e+0 0.0000000e+0 1.00000000
vn 0.0000000e+0 1.00000000 0.0000000e+0
vn -1.00000000 0.0000000e+0 0.0000000e+0
vn 0.0000000e+0 0.0000000e+0 1.00000000
vn 1.00000000 0.0000000e+0 0.0000000e+0
vn 0.0000000e+0 1.00000000 0.0000000e+0
vn 0.0000000e+0 0.0000000e+0 1.00000000
vn 1.00000000 0.0000000e+0 0.0000000e+0
vn 0.0000000e+0 -1.00000000 0.0000000e+0
vn 0.0000000e+0 -1.00000000 0.0000000e+0
vn 0.0000000e+0 0.0000000e+0 -1.00000000
vn -1.00000000 0.0000000e+0 0.0000000e+0
vn 0.0000000e+0 1.00000000 0.0000000e+0
vn 0.0000000e+0 0.0000000e+0 -1.00000000
vn -1.00000000 0.0000000e+0 0.0000000e+0
vn 1.00000000 0.0000000e+0 0.0000000e+0
vn 0.0000000e+0 1.00000000 0.0000000e+0
vn 0.0000000e+0 0.0000000e+0 -1.00000000
vn 1.00000000 0.0000000e+0 0.0000000e+0
vn 0.0000000e+0 -1.00000000 0.0000000e+0
vn 0.0000000e+0 0.0000000e+0 -1.00000000
g cube6_default
usemtl default
s 1
f 9//25 12//34 11//31 10//28
f 14//41 15//45 16//48 13//38
s 2
f 10//30 14//42 13//39 9//27
f 12//35 16//46 15//43 11//32
s 3
f 9//26 13//37 16//47 12//36
f 11//33 15//44 14//40 10//29
o cube4
#16 vertices, 14 faces
v -1.00000000 0.0000000e+0 1.00000000
v -1.00000000 1.40266667 1.00000000
v 1.00000000 1.40266667 1.00000000
v 1.00000000 0.0000000e+0 1.00000000
v -1.00000000 0.0000000e+0 -1.00000000
v -1.00000000 1.40266667 -1.00000000
v 1.00000000 1.40266667 -1.00000000
v 1.00000000 0.0000000e+0 -1.00000000
v 1.00000000 0.87737244 0.85692800
v 1.00000000 2.5738667e-2 0.85692800
v 1.00000000 2.5738667e-2 -0.85692800
v 1.00000000 0.87737244 -0.85692800
v 0.28533333 0.87737244 0.85692800
v 0.28533333 2.5738667e-2 0.85692800
v 0.28533333 2.5738667e-2 -0.85692800
v 0.28533333 0.87737244 -0.85692800
vn 0.0000000e+0 0.0000000e+0 1.00000000
vn 0.0000000e+0 -1.00000000 0.0000000e+0
vn -1.00000000 0.0000000e+0 0.0000000e+0
vn 0.0000000e+0 0.0000000e+0 1.00000000
vn 0.0000000e+0 1.00000000 0.0000000e+0
vn -1.00000000 0.0000000e+0 0.0000000e+0
vn 0.0000000e+0 0.0000000e+0 1.00000000
vn 0.0000000e+0 1.00000000 0.0000000e+0
vn 1.00000000 0.0000000e+0 0.0000000e+0
vn 1.00000000 0.0000000e+0 0.0000000e+0
vn 0.0000000e+0 0.0000000e+0 1.00000000
vn 0.0000000e+0 -1.00000000 0.0000000e+0
vn 1.00000000 0.0000000e+0 0.0000000e+0
vn 1.00000000 0.0000000e+0 0.0000000e+0
vn 0.0000000e+0 -1.00000000 0.0000000e+0
vn 0.0000000e+0 0.0000000e+0 -1.00000000
vn -1.00000000 0.0000000e+0 0.0000000e+0
vn 0.0000000e+0 1.00000000 0.0000000e+0
vn 0.0000000e+0 0.0000000e+0 -1.00000000
vn -1.00000000 0.0000000e+0 0.0000000e+0
vn 0.0000000e+0 1.00000000 0.0000000e+0
vn 0.0000000e+0 0.0000000e+0 -1.00000000
vn 1.00000000 0.0000000e+0 0.0000000e+0
vn 1.00000000 0.0000000e+0 0.0000000e+0
vn 0.0000000e+0 -1.00000000 0.0000000e+0
vn 0.0000000e+0 0.0000000e+0 -1.00000000
vn 1.00000000 0.0000000e+0 0.0000000e+0
vn 1.00000000 0.0000000e+0 0.0000000e+0
vn 1.00000000 0.0000000e+0 0.0000000e+0
vn 1.00000000 0.0000000e+0 0.0000000e+0
vn 0.0000000e+0 0.0000000e+0 -1.00000000
vn 0.0000000e+0 -1.00000000 0.0000000e+0
vn 1.00000000 0.0000000e+0 0.0000000e+0
vn 1.00000000 0.0000000e+0 0.0000000e+0
vn 0.0000000e+0 0.0000000e+0 -1.00000000
vn 0.0000000e+0 1.00000000 0.0000000e+0
vn 1.00000000 0.0000000e+0 0.0000000e+0
vn 1.00000000 0.0000000e+0 0.0000000e+0
vn 0.0000000e+0 1.00000000 0.0000000e+0
vn 0.0000000e+0 0.0000000e+0 1.00000000
vn 1.00000000 0.0000000e+0 0.0000000e+0
vn 1.00000000 0.0000000e+0 0.0000000e+0
vn 0.0000000e+0 0.0000000e+0 1.00000000
vn 0.0000000e+0 -1.00000000 0.0000000e+0
vn 1.00000000 0.0000000e+0 0.0000000e+0
vn 0.0000000e+0 0.0000000e+0 -1.00000000
vn 0.0000000e+0 -1.00000000 0.0000000e+0
vn 1.00000000 0.0000000e+0 0.0000000e+0
vn 0.0000000e+0 0.0000000e+0 -1.00000000
vn 0.0000000e+0 1.00000000 0.0000000e+0
vn 1.00000000 0.0000000e+0 0.0000000e+0
vn 0.0000000e+0 1.00000000 0.0000000e+0
vn 0.0000000e+0 0.0000000e+0 1.00000000
vn 1.00000000 0.0000000e+0 0.0000000e+0
vn 0.0000000e+0 0.0000000e+0 1.00000000
vn 0.0000000e+0 -1.00000000 0.0000000e+0
g cube4_default
usemtl default
s 1
f 17//49 20//59 19//55 18//52
f 19//58 25//78 28//90 23//72
f 22//67 23//70 24//74 21//64
f 24//75 27//85 26//82 20//62
f 26//83 30//97 29//94 25//79
f 28//91 32//103 31//101 27//88
s 2
f 18//54 22//68 21//65 17//51
f 20//61 26//81 25//77 19//57
f 23//71 28//89 27//86 24//76
f 25//80 29//95 32//104 28//92
f 27//87 31//100 30//98 26//84
s 3
f 17//50 21//63 24//73 20//60
f 19//56 23//69 22//66 18//53
f 30//96 31//99 32//102 29//93
