# Exported from Wings 3D 1.4.1
mtllib syringe.mtl
o cylinder2
#12 vertices, 8 faces
v 0.37700000 1.37266667 0.0000000e+0
v 0.18850000 1.37266667 0.32649158
v -0.18850000 1.37266667 0.32649158
v -0.37700000 1.37266667 4.6169184e-17
v -0.18850000 1.37266667 -0.32649158
v 0.18850000 1.37266667 -0.32649158
v 0.37700000 -0.13533333 0.0000000e+0
v 0.18850000 -0.13533333 0.32649158
v -0.18850000 -0.13533333 0.32649158
v -0.37700000 -0.13533333 4.6169184e-17
v -0.18850000 -0.13533333 -0.32649158
v 0.18850000 -0.13533333 -0.32649158
vn 0.0000000e+0 1.00000000 4.5098999e-16
vn 0.86602540 0.0000000e+0 -0.50000000
vn 0.86602540 0.0000000e+0 0.50000000
vn 0.0000000e+0 1.00000000 4.5098999e-16
vn 1.4724443e-16 0.0000000e+0 1.00000000
vn 0.86602540 0.0000000e+0 0.50000000
vn 0.0000000e+0 1.00000000 4.5098999e-16
vn -0.86602540 0.0000000e+0 0.50000000
vn 1.4724443e-16 0.0000000e+0 1.00000000
vn 0.0000000e+0 1.00000000 4.5098999e-16
vn -0.86602540 0.0000000e+0 -0.50000000
vn -0.86602540 0.0000000e+0 0.50000000
vn 0.0000000e+0 1.00000000 4.5098999e-16
vn -5.8897773e-16 0.0000000e+0 -1.00000000
vn -0.86602540 0.0000000e+0 -0.50000000
vn 0.0000000e+0 1.00000000 4.5098999e-16
vn 0.86602540 0.0000000e+0 -0.50000000
vn -5.8897773e-16 0.0000000e+0 -1.00000000
vn 0.0000000e+0 -1.00000000 0.0000000e+0
vn 0.86602540 0.0000000e+0 -0.50000000
vn 0.86602540 0.0000000e+0 0.50000000
vn 0.0000000e+0 -1.00000000 0.0000000e+0
vn 1.4724443e-16 0.0000000e+0 1.00000000
vn 0.86602540 0.0000000e+0 0.50000000
vn 0.0000000e+0 -1.00000000 0.0000000e+0
vn -0.86602540 0.0000000e+0 0.50000000
vn 1.4724443e-16 0.0000000e+0 1.00000000
vn 0.0000000e+0 -1.00000000 0.0000000e+0
vn -0.86602540 0.0000000e+0 -0.50000000
vn -0.86602540 0.0000000e+0 0.50000000
vn 0.0000000e+0 -1.00000000 0.0000000e+0
vn -5.8897773e-16 0.0000000e+0 -1.00000000
vn -0.86602540 0.0000000e+0 -0.50000000
vn 0.0000000e+0 -1.00000000 0.0000000e+0
vn 0.86602540 0.0000000e+0 -0.50000000
vn -5.8897773e-16 0.0000000e+0 -1.00000000
g cylinder2_default
usemtl default
s 1
f 1//1 6//16 5//13 4//10 3//7 2//4
f 8//22 9//25 10//28 11//31 12//34 7//19
s 2
f 1//2 7//20 12//35 6//17
f 3//9 9//27 8//23 2//5
f 5//15 11//33 10//29 4//11
s 3
f 2//6 8//24 7//21 1//3
f 4//12 10//30 9//26 3//8
f 6//18 12//36 11//32 5//14
o cylinder1
#66 vertices, 62 faces
v 0.50000000 1.40888889 0.0000000e+0
v 0.25000000 1.40888889 0.43301270
v -0.25000000 1.40888889 0.43301270
v -0.50000000 1.40888889 6.1232340e-17
v -0.25000000 1.40888889 -0.43301270
v 0.25000000 1.40888889 -0.43301270
v 1.7711275e-2 -2.57920485 4.9731824e-17
v 8.8556375e-3 -2.57920485 1.5338414e-2
v -8.8556375e-3 -2.57920485 1.5338414e-2
v -1.7711275e-2 -2.57920485 -1.9251085e-17
v -8.8556375e-3 -2.57920485 -1.5338414e-2
v 8.8556375e-3 -2.57920485 -1.5338414e-2
v 2.2139094e-2 -0.50133333 -3.8346035e-2
v -2.2139094e-2 -0.50133333 -3.8346035e-2
v -4.4278188e-2 -0.50133333 -7.0218066e-17
v -2.2139094e-2 -0.50133333 3.8346035e-2
v 2.2139094e-2 -0.50133333 3.8346035e-2
v 4.4278188e-2 -0.50133333 1.0223920e-16
v 0.25000000 -0.19511111 -0.43301270
v -0.25000000 -0.19511111 -0.43301270
v -0.50000000 -0.19511111 6.1232340e-17
v -0.25000000 -0.19511111 0.43301270
v 0.25000000 -0.19511111 0.43301270
v 0.50000000 -0.19511111 0.0000000e+0
v 6.3000000e-2 1.56177778 0.10911920
v 0.12600000 1.56177778 -6.5855917e-18
v 6.3000000e-2 1.56177778 -0.10911920
v -6.3000000e-2 1.56177778 -0.10911920
v -0.12600000 1.56177778 8.8449580e-18
v -6.3000000e-2 1.56177778 0.10911920
v 0.68885769 1.40888889 -4.8422172e-17
v 0.34442884 1.40888889 0.59656826
v -0.34442884 1.40888889 0.59656826
v -0.68885769 1.40888889 1.0360174e-16
v -0.34442884 1.40888889 -0.59656826
v 0.34442884 1.40888889 -0.59656826
v 0.34442884 1.56177778 0.59656826
v 0.68885769 1.56177778 -7.4555472e-17
v 0.34442884 1.56177778 -0.59656826
v -0.34442884 1.56177778 -0.59656826
v -0.68885769 1.56177778 7.7468440e-17
v -0.34442884 1.56177778 0.59656826
v 6.3000000e-2 2.00622222 0.10911920
v 0.12600000 2.00622222 -3.0565690e-16
v 6.3000000e-2 2.00622222 -0.10911920
v -6.3000000e-2 2.00622222 -0.10911920
v -0.12600000 2.00622222 -2.9022635e-16
v -6.3000000e-2 2.00622222 0.10911920
v 6.3000000e-2 2.18933333 0.10911920
v 0.12600000 2.18933333 -5.5209165e-16
v 6.3000000e-2 2.18933333 -0.10911920
v -6.3000000e-2 2.18933333 -0.10911920
v -0.12600000 2.18933333 -5.3666110e-16
v -6.3000000e-2 2.18933333 0.10911920
v 0.59951126 2.00622222 0.34556365
v 0.79902253 2.00622222 -3.5815811e-16
v 0.59951126 2.00622222 -0.34556365
v -0.59951126 2.00622222 -0.34556365
v -0.79902253 2.00622222 -2.2897493e-16
v -0.59951126 2.00622222 0.34556365
v 0.59951126 2.18933333 0.34556365
v 0.79902253 2.18933333 -6.0459286e-16
v 0.59951126 2.18933333 -0.34556365
v -0.59951126 2.18933333 -0.34556365
v -0.79902253 2.18933333 -4.7540968e-16
v -0.59951126 2.18933333 0.34556365
vn 0.86602540 0.0000000e+0 -0.50000000
vn 0.86602540 0.0000000e+0 0.50000000
vn 0.0000000e+0 -1.00000000 0.0000000e+0
vn 0.0000000e+0 -1.00000000 0.0000000e+0
vn 1.1102230e-16 0.0000000e+0 1.00000000
vn 0.86602540 0.0000000e+0 0.50000000
vn 0.0000000e+0 -1.00000000 0.0000000e+0
vn 0.0000000e+0 -1.00000000 0.0000000e+0
vn -0.86602540 0.0000000e+0 0.50000000
vn 1.1102230e-16 0.0000000e+0 1.00000000
vn 0.0000000e+0 -1.00000000 0.0000000e+0
vn 0.0000000e+0 -1.00000000 0.0000000e+0
vn -0.86602540 0.0000000e+0 -0.50000000
vn -0.86602540 0.0000000e+0 0.50000000
vn 0.0000000e+0 -1.00000000 0.0000000e+0
vn 0.0000000e+0 -1.00000000 0.0000000e+0
vn -6.6613381e-16 0.0000000e+0 -1.00000000
vn -0.86602540 0.0000000e+0 -0.50000000
vn 0.0000000e+0 -1.00000000 0.0000000e+0
vn 0.0000000e+0 -1.00000000 0.0000000e+0
vn 0.86602540 0.0000000e+0 -0.50000000
vn -6.6613381e-16 0.0000000e+0 -1.00000000
vn 0.0000000e+0 -1.00000000 0.0000000e+0
vn 0.0000000e+0 -1.00000000 0.0000000e+0
vn 0.0000000e+0 -1.00000000 8.5140992e-15
vn 0.86597232 -1.1072008e-2 -0.49996935
vn 0.86597232 -1.1072008e-2 0.49996935
vn 0.0000000e+0 -1.00000000 8.5140992e-15
vn 0.0000000e+0 -1.1072008e-2 0.99993870
vn 0.86597232 -1.1072008e-2 0.49996935
vn 0.0000000e+0 -1.00000000 8.5140992e-15
vn -0.86597232 -1.1072008e-2 0.49996935
vn 0.0000000e+0 -1.1072008e-2 0.99993870
vn 0.0000000e+0 -1.00000000 8.5140992e-15
vn -0.86597232 -1.1072008e-2 -0.49996935
vn -0.86597232 -1.1072008e-2 0.49996935
vn 0.0000000e+0 -1.00000000 8.5140992e-15
vn -1.2389532e-15 -1.1072008e-2 -0.99993870
vn -0.86597232 -1.1072008e-2 -0.49996935
vn 0.0000000e+0 -1.00000000 8.5140992e-15
vn 0.86597232 -1.1072008e-2 -0.49996935
vn -1.2389532e-15 -1.1072008e-2 -0.99993870
vn 0.53088765 -0.79007030 -0.30650813
vn -4.0834250e-16 -0.79007030 -0.61301625
vn 0.86597232 -1.1072008e-2 -0.49996935
vn -1.2389532e-15 -1.1072008e-2 -0.99993870
vn -4.0834250e-16 -0.79007030 -0.61301625
vn -0.53088765 -0.79007030 -0.30650813
vn -1.2389532e-15 -1.1072008e-2 -0.99993870
vn -0.86597232 -1.1072008e-2 -0.49996935
vn -0.53088765 -0.79007030 -0.30650813
vn -0.53088765 -0.79007030 0.30650813
vn -0.86597232 -1.1072008e-2 -0.49996935
vn -0.86597232 -1.1072008e-2 0.49996935
vn -0.53088765 -0.79007030 0.30650813
vn 5.1042813e-17 -0.79007030 0.61301625
vn -0.86597232 -1.1072008e-2 0.49996935
vn 0.0000000e+0 -1.1072008e-2 0.99993870
vn 5.1042813e-17 -0.79007030 0.61301625
vn 0.53088765 -0.79007030 0.30650813
vn 0.0000000e+0 -1.1072008e-2 0.99993870
vn 0.86597232 -1.1072008e-2 0.49996935
vn 0.53088765 -0.79007030 -0.30650813
vn 0.53088765 -0.79007030 0.30650813
vn 0.86597232 -1.1072008e-2 -0.49996935
vn 0.86597232 -1.1072008e-2 0.49996935
vn 0.53088765 -0.79007030 -0.30650813
vn -4.0834250e-16 -0.79007030 -0.61301625
vn 0.86602540 0.0000000e+0 -0.50000000
vn -6.6613381e-16 0.0000000e+0 -1.00000000
vn -4.0834250e-16 -0.79007030 -0.61301625
vn -0.53088765 -0.79007030 -0.30650813
vn -6.6613381e-16 0.0000000e+0 -1.00000000
vn -0.86602540 0.0000000e+0 -0.50000000
vn -0.53088765 -0.79007030 -0.30650813
vn -0.53088765 -0.79007030 0.30650813
vn -0.86602540 0.0000000e+0 -0.50000000
vn -0.86602540 0.0000000e+0 0.50000000
vn -0.53088765 -0.79007030 0.30650813
vn 5.1042813e-17 -0.79007030 0.61301625
vn -0.86602540 0.0000000e+0 0.50000000
vn 1.1102230e-16 0.0000000e+0 1.00000000
vn 5.1042813e-17 -0.79007030 0.61301625
vn 0.53088765 -0.79007030 0.30650813
vn 1.1102230e-16 0.0000000e+0 1.00000000
vn 0.86602540 0.0000000e+0 0.50000000
vn 0.53088765 -0.79007030 -0.30650813
vn 0.53088765 -0.79007030 0.30650813
vn 0.86602540 0.0000000e+0 -0.50000000
vn 0.86602540 0.0000000e+0 0.50000000
vn 0.0000000e+0 1.00000000 0.0000000e+0
vn 0.0000000e+0 1.00000000 0.0000000e+0
vn 0.86602540 3.4074925e-16 0.50000000
vn 1.1014117e-16 6.8695050e-16 1.00000000
vn 0.0000000e+0 1.00000000 0.0000000e+0
vn 0.0000000e+0 1.00000000 0.0000000e+0
vn 0.86602540 3.4074925e-16 0.50000000
vn 0.86602540 -3.4074925e-16 -0.50000000
vn 0.0000000e+0 1.00000000 0.0000000e+0
vn 0.0000000e+0 1.00000000 0.0000000e+0
vn 0.86602540 -3.4074925e-16 -0.50000000
vn -6.6084704e-16 -6.8695050e-16 -1.00000000
vn 0.0000000e+0 1.00000000 0.0000000e+0
vn 0.0000000e+0 1.00000000 0.0000000e+0
vn -6.6084704e-16 -6.8695050e-16 -1.00000000
vn -0.86602540 -3.4074925e-16 -0.50000000
vn 0.0000000e+0 1.00000000 0.0000000e+0
vn 0.0000000e+0 1.00000000 0.0000000e+0
vn -0.86602540 -3.4074925e-16 -0.50000000
vn -0.86602540 3.4074925e-16 0.50000000
vn 0.0000000e+0 1.00000000 0.0000000e+0
vn 0.0000000e+0 1.00000000 0.0000000e+0
vn -0.86602540 3.4074925e-16 0.50000000
vn 1.1014117e-16 6.8695050e-16 1.00000000
vn 0.86602540 1.3176947e-16 0.50000000
vn 0.86602540 -2.6353895e-16 -0.50000000
vn 0.0000000e+0 -1.00000000 0.0000000e+0
vn 0.0000000e+0 -1.00000000 0.0000000e+0
vn 0.86602540 1.3176947e-16 0.50000000
vn 0.0000000e+0 0.0000000e+0 1.00000000
vn 0.0000000e+0 -1.00000000 0.0000000e+0
vn 0.0000000e+0 -1.00000000 0.0000000e+0
vn -0.86602540 0.0000000e+0 0.50000000
vn 0.0000000e+0 0.0000000e+0 1.00000000
vn 0.0000000e+0 -1.00000000 0.0000000e+0
vn 0.0000000e+0 -1.00000000 0.0000000e+0
vn -0.86602540 0.0000000e+0 -0.50000000
vn -0.86602540 0.0000000e+0 0.50000000
vn 0.0000000e+0 -1.00000000 0.0000000e+0
vn 0.0000000e+0 -1.00000000 0.0000000e+0
vn -8.0584353e-16 0.0000000e+0 -1.00000000
vn -0.86602540 0.0000000e+0 -0.50000000
vn 0.0000000e+0 -1.00000000 0.0000000e+0
vn 0.0000000e+0 -1.00000000 0.0000000e+0
vn 0.86602540 -2.6353895e-16 -0.50000000
vn -8.0584353e-16 0.0000000e+0 -1.00000000
vn 0.0000000e+0 -1.00000000 0.0000000e+0
vn 0.0000000e+0 -1.00000000 0.0000000e+0
vn 0.86602540 1.3176947e-16 0.50000000
vn 0.0000000e+0 0.0000000e+0 1.00000000
vn 0.0000000e+0 1.00000000 0.0000000e+0
vn 0.0000000e+0 1.00000000 0.0000000e+0
vn 0.86602540 1.3176947e-16 0.50000000
vn 0.86602540 -2.6353895e-16 -0.50000000
vn 0.0000000e+0 1.00000000 0.0000000e+0
vn 0.0000000e+0 1.00000000 0.0000000e+0
vn 0.86602540 -2.6353895e-16 -0.50000000
vn -8.0584353e-16 0.0000000e+0 -1.00000000
vn 0.0000000e+0 1.00000000 0.0000000e+0
vn 0.0000000e+0 1.00000000 0.0000000e+0
vn -8.0584353e-16 0.0000000e+0 -1.00000000
vn -0.86602540 0.0000000e+0 -0.50000000
vn 0.0000000e+0 1.00000000 0.0000000e+0
vn 0.0000000e+0 1.00000000 0.0000000e+0
vn -0.86602540 0.0000000e+0 -0.50000000
vn -0.86602540 0.0000000e+0 0.50000000
vn 0.0000000e+0 1.00000000 0.0000000e+0
vn 0.0000000e+0 1.00000000 0.0000000e+0
vn -0.86602540 0.0000000e+0 0.50000000
vn 0.0000000e+0 0.0000000e+0 1.00000000
vn 0.0000000e+0 1.00000000 0.0000000e+0
vn 0.0000000e+0 1.00000000 0.0000000e+0
vn 0.86602540 3.4074925e-16 0.50000000
vn 1.1014117e-16 6.8695050e-16 1.00000000
vn 1.5835553e-16 -1.00000000 1.0681276e-15
vn 7.8686111e-32 -1.00000000 1.8781968e-15
vn 0.86602540 3.4074925e-16 0.50000000
vn 0.86602540 -3.4074925e-16 -0.50000000
vn 1.5835553e-16 -1.00000000 1.0681276e-15
vn -1.5835553e-16 -1.00000000 1.0681276e-15
vn 0.86602540 -3.4074925e-16 -0.50000000
vn -6.6084704e-16 -6.8695050e-16 -1.00000000
vn 4.3277361e-31 -1.00000000 1.8781968e-15
vn -1.5835553e-16 -1.00000000 1.0681276e-15
vn -6.6084704e-16 -6.8695050e-16 -1.00000000
vn -0.86602540 -3.4074925e-16 -0.50000000
vn 1.5835553e-16 -1.00000000 1.0681276e-15
vn 4.3277361e-31 -1.00000000 1.8781968e-15
vn -0.86602540 -3.4074925e-16 -0.50000000
vn -0.86602540 3.4074925e-16 0.50000000
vn 1.5835553e-16 -1.00000000 1.0681276e-15
vn -1.5835553e-16 -1.00000000 1.0681276e-15
vn -0.86602540 3.4074925e-16 0.50000000
vn 1.1014117e-16 6.8695050e-16 1.00000000
vn 7.8686111e-32 -1.00000000 1.8781968e-15
vn -1.5835553e-16 -1.00000000 1.0681276e-15
vn 0.0000000e+0 1.00000000 6.7291043e-16
vn -1.5835553e-16 1.00000000 -1.0681276e-15
vn -1.9671528e-31 1.00000000 -1.8781968e-15
vn 0.0000000e+0 1.00000000 6.7291043e-16
vn 1.5835553e-16 1.00000000 -1.0681276e-15
vn -1.5835553e-16 1.00000000 -1.0681276e-15
vn 0.0000000e+0 1.00000000 6.7291043e-16
vn 1.5835553e-16 1.00000000 -1.0681276e-15
vn -3.5408750e-31 1.00000000 -1.8781968e-15
vn 0.0000000e+0 1.00000000 6.7291043e-16
vn -1.5835553e-16 1.00000000 -1.0681276e-15
vn -3.5408750e-31 1.00000000 -1.8781968e-15
vn 0.0000000e+0 1.00000000 6.7291043e-16
vn 1.5835553e-16 1.00000000 -1.0681276e-15
vn -1.5835553e-16 1.00000000 -1.0681276e-15
vn 0.0000000e+0 1.00000000 6.7291043e-16
vn 1.5835553e-16 1.00000000 -1.0681276e-15
vn -1.9671528e-31 1.00000000 -1.8781968e-15
vn 0.86602540 7.5974547e-16 0.50000000
vn 6.9445507e-17 1.3642000e-15 1.00000000
vn 1.5835553e-16 -1.00000000 1.0681276e-15
vn 7.8686111e-32 -1.00000000 1.8781968e-15
vn 0.86602540 7.5974547e-16 0.50000000
vn 0.86602540 -6.6477729e-16 -0.50000000
vn 1.5835553e-16 -1.00000000 1.0681276e-15
vn -1.5835553e-16 -1.00000000 1.0681276e-15
vn 0.86602540 -6.6477729e-16 -0.50000000
vn -1.6203952e-16 -1.3642000e-15 -1.00000000
vn 4.3277361e-31 -1.00000000 1.8781968e-15
vn -1.5835553e-16 -1.00000000 1.0681276e-15
vn -1.6203952e-16 -1.3642000e-15 -1.00000000
vn -0.86602540 -7.5974547e-16 -0.50000000
vn 1.5835553e-16 -1.00000000 1.0681276e-15
vn 4.3277361e-31 -1.00000000 1.8781968e-15
vn -0.86602540 -7.5974547e-16 -0.50000000
vn -0.86602540 6.6477729e-16 0.50000000
vn 1.5835553e-16 -1.00000000 1.0681276e-15
vn -1.5835553e-16 -1.00000000 1.0681276e-15
vn -0.86602540 6.6477729e-16 0.50000000
vn 6.9445507e-17 1.3642000e-15 1.00000000
vn 7.8686111e-32 -1.00000000 1.8781968e-15
vn -1.5835553e-16 -1.00000000 1.0681276e-15
vn 0.86602540 7.5974547e-16 0.50000000
vn 6.9445507e-17 1.3642000e-15 1.00000000
vn -1.5835553e-16 1.00000000 -1.0681276e-15
vn -1.9671528e-31 1.00000000 -1.8781968e-15
vn 0.86602540 7.5974547e-16 0.50000000
vn 0.86602540 -6.6477729e-16 -0.50000000
vn 1.5835553e-16 1.00000000 -1.0681276e-15
vn -1.5835553e-16 1.00000000 -1.0681276e-15
vn 0.86602540 -6.6477729e-16 -0.50000000
vn -1.6203952e-16 -1.3642000e-15 -1.00000000
vn 1.5835553e-16 1.00000000 -1.0681276e-15
vn -3.5408750e-31 1.00000000 -1.8781968e-15
vn -1.6203952e-16 -1.3642000e-15 -1.00000000
vn -0.86602540 -7.5974547e-16 -0.50000000
vn -1.5835553e-16 1.00000000 -1.0681276e-15
vn -3.5408750e-31 1.00000000 -1.8781968e-15
vn -0.86602540 -7.5974547e-16 -0.50000000
vn -0.86602540 6.6477729e-16 0.50000000
vn 1.5835553e-16 1.00000000 -1.0681276e-15
vn -1.5835553e-16 1.00000000 -1.0681276e-15
vn -0.86602540 6.6477729e-16 0.50000000
vn 6.9445507e-17 1.3642000e-15 1.00000000
vn 1.5835553e-16 1.00000000 -1.0681276e-15
vn -1.9671528e-31 1.00000000 -1.8781968e-15
g cylinder1_default
usemtl default
s 1
f 13//37 36//125 31//105 18//57
f 13//39 43//153 44//157 14//43
f 16//50 33//114 34//117 15//45
f 17//56 47//170 48//173 18//59
f 19//63 30//102 29//98 20//66
f 21//68 28//93 27//90 22//72
f 23//74 26//85 25//82 24//78
f 27//87 33//111 32//108 26//84
f 29//95 35//119 34//116 28//92
f 37//127 49//177 50//181 38//131
f 39//136 51//186 52//190 40//140
f 39//137 57//207 56//204 38//134
f 42//149 60//219 59//216 41//146
f 43//152 48//171 51//183 50//180
f 49//176 54//196 45//160 44//156
f 53//191 52//188 47//168 46//163
f 56//205 68//247 67//243 55//201
f 59//217 71//259 70//255 58//213
f 61//224 73//267 74//272 62//228
f 63//231 75//276 76//280 64//234
f 65//236 77//283 78//287 66//239
f 68//246 69//249 75//273 74//270
f 73//266 78//286 72//262 67//242
s 2
f 14//44 44//158 45//162 15//48
f 17//54 32//110 33//113 16//49
f 18//60 48//174 43//154 13//40
f 20//65 29//97 28//94 21//69
f 22//71 27//89 26//86 23//75
f 24//77 25//81 30//101 19//62
f 26//83 32//107 31//104 25//80
f 28//91 34//115 33//112 27//88
f 30//100 36//124 35//120 29//96
f 38//132 50//182 51//185 39//135
f 38//133 56//203 55//199 37//129
f 40//139 52//189 53//193 41//143
f 40//141 58//211 57//208 39//138
f 42//147 54//197 49//178 37//128
f 50//179 49//175 44//155 43//151
f 52//187 51//184 48//172 47//167
f 54//195 53//192 46//164 45//159
f 57//210 69//252 68//248 56//206
f 60//222 72//264 71//260 59//218
f 62//227 74//271 75//275 63//230
f 64//233 76//279 77//284 65//237
f 66//240 78//288 73//268 61//225
f 67//241 68//245 74//269 73//265
f 69//250 70//253 76//277 75//274
s 3
f 14//42 35//122 36//126 13//38
f 15//47 45//161 46//166 16//52
f 18//58 31//106 32//109 17//53
f 20//64 21//67 22//70 23//73 24//76 19//61
f 25//79 31//103 36//123 30//99
f 41//144 53//194 54//198 42//148
f 41//145 59//215 58//212 40//142
f 55//202 67//244 72//263 60//221
f 58//214 70//256 69//251 57//209
f 62//226 63//229 64//232 65//235 66//238 61//223
f 70//254 71//257 77//281 76//278
s 4
f 15//46 34//118 35//121 14//41
f 16//51 46//165 47//169 17//55
f 37//130 55//200 60//220 42//150
f 71//258 72//261 78//285 77//282
