# Exported from Wings 3D 1.4.1
mtllib tree.mtl
o cylinder9
#42 vertices, 37 faces
v 0.45656166 1.77431158 -2.7142449e-18
v 0.28466154 1.77431158 0.35695428
v -0.10159453 1.77431158 0.44511471
v -0.41134784 1.77431158 0.19809468
v -0.41134784 1.77431158 -0.19809468
v -0.10159453 1.77431158 -0.44511471
v 0.28466154 1.77431158 -0.35695428
v 0.75000000 0.57177764 0.0000000e+0
v 0.46761735 0.57177764 0.58637361
v -0.16689070 0.57177764 0.73119593
v -0.67572665 0.57177764 0.32541280
v -0.67572665 0.57177764 -0.32541280
v -0.16689070 0.57177764 -0.73119593
v 0.46761735 0.57177764 -0.58637361
v 0.39277835 1.15447368 -0.49533087
v -0.14274644 1.15447368 -0.61756091
v -0.57220399 1.15447368 -0.27507995
v -0.57220399 1.15447368 0.27421687
v -0.14274644 1.15447368 0.61669783
v 0.39277835 1.15447368 0.49446779
v 0.63110931 1.15447368 -4.3153819e-4
v 8.6757015e-2 1.72093529 -0.16401692
v -7.4515956e-2 1.72093529 -0.17173293
v -0.18110062 1.72093529 -5.0455489e-2
v -0.18110062 1.72093529 4.9592413e-2
v -7.4515956e-2 1.72093529 0.17086985
v 8.6757015e-2 1.72093529 0.16315385
v 0.18127645 1.72093529 -3.3117790e-2
v 0.32505863 1.07177764 -3.0877559e-2
v 0.17852969 1.07177764 0.27339291
v -0.10243574 1.07177764 0.31003783
v -0.30626497 1.07177764 0.11321793
v -0.30626497 1.07177764 -0.11321793
v -0.10243574 1.07177764 -0.31003783
v 0.17852969 1.07177764 -0.27339291
v 3.1398897e-2 2.45335518 3.9372971e-2
v 5.0359920e-2 2.45335518 3.3023182e-17
v 3.1398897e-2 2.45335518 -3.9372971e-2
v -1.1206136e-2 2.45335518 -4.9097292e-2
v -4.5372720e-2 2.45335518 -2.1850350e-2
v -4.5372720e-2 2.45335518 2.1850350e-2
v -1.1206136e-2 2.45335518 4.9097292e-2
vn 0.18613742 -0.97725124 -0.10165072
vn 0.17959812 -0.97993062 8.6489897e-2
vn 0.79311305 0.47443772 0.38194311
vn 0.79311305 0.47443772 -0.38194311
vn 3.6680942e-2 -0.97712538 0.20947673
vn 0.17959812 -0.97993062 8.6489897e-2
vn 0.79311305 0.47443772 0.38194311
vn 0.19588275 0.47443772 0.85821838
vn -0.14183319 -0.97681954 0.16033383
vn 3.6680942e-2 -0.97712538 0.20947673
vn -0.54885126 0.47443772 0.68823771
vn 0.19588275 0.47443772 0.85821838
vn -0.22583278 -0.97416608 5.9161541e-17
vn -0.14183319 -0.97681954 0.16033383
vn -0.88028907 0.47443772 3.2718526e-16
vn -0.54885126 0.47443772 0.68823771
vn -0.14219327 -0.97670028 -0.16074088
vn -0.22583278 -0.97416608 5.9161541e-17
vn -0.54885126 0.47443772 -0.68823771
vn -0.88028907 0.47443772 3.2718526e-16
vn 3.6802738e-2 -0.97697143 -0.21017228
vn -0.14219327 -0.97670028 -0.16074088
vn 0.19588275 0.47443772 -0.85821838
vn -0.54885126 0.47443772 -0.68823771
vn 0.18613742 -0.97725124 -0.10165072
vn 3.6802738e-2 -0.97697143 -0.21017228
vn 0.79311305 0.47443772 -0.38194311
vn 0.19588275 0.47443772 -0.85821838
vn 0.0000000e+0 -1.00000000 1.8032109e-17
vn 0.70580829 0.60699818 -0.36522304
vn 0.70611015 0.62111033 0.34004472
vn 0.0000000e+0 -1.00000000 1.8032109e-17
vn 0.15452140 0.60699818 0.77953598
vn 0.70611015 0.62111033 0.34004472
vn 0.0000000e+0 -1.00000000 1.8032109e-17
vn -0.51312326 0.60699818 0.60684243
vn 0.15452140 0.60699818 0.77953598
vn 0.0000000e+0 -1.00000000 1.8032109e-17
vn -0.80425574 0.59428335 1.5267453e-16
vn -0.51312326 0.60699818 0.60684243
vn 0.0000000e+0 -1.00000000 1.8032109e-17
vn -0.51312326 0.60699818 -0.60684243
vn -0.80425574 0.59428335 1.5267453e-16
vn 0.0000000e+0 -1.00000000 1.8032109e-17
vn 0.15452140 0.60699818 -0.77953598
vn -0.51312326 0.60699818 -0.60684243
vn 0.0000000e+0 -1.00000000 1.8032109e-17
vn 0.70580829 0.60699818 -0.36522304
vn 0.15452140 0.60699818 -0.77953598
vn 0.71893263 0.58044490 -0.38238670
vn 0.14928520 0.58044490 -0.80049837
vn 0.25535669 -0.95761767 -0.13327175
vn 5.4735207e-2 -0.95805901 -0.28129520
vn 0.14928520 0.58044490 -0.80049837
vn -0.53277703 0.58044490 -0.61581844
vn 5.4735207e-2 -0.95805901 -0.28129520
vn -0.18488264 -0.95848045 -0.21710281
vn -0.53277703 0.58044490 -0.61581844
vn -0.82291380 0.56816624 2.4838124e-16
vn -0.18488264 -0.95848045 -0.21710281
vn -0.29693384 -0.95489806 6.4236684e-17
vn -0.82291380 0.56816624 2.4838124e-16
vn -0.53277703 0.58044490 0.61581844
vn -0.29693384 -0.95489806 6.4236684e-17
vn -0.18528500 -0.95829560 0.21757529
vn -0.53277703 0.58044490 0.61581844
vn 0.14928520 0.58044490 0.80049837
vn -0.18528500 -0.95829560 0.21757529
vn 5.4889574e-2 -0.95781689 0.28208852
vn 0.14928520 0.58044490 0.80049837
vn 0.72406178 0.59510501 0.34868978
vn 5.4889574e-2 -0.95781689 0.28208852
vn 0.24789840 -0.96140232 0.11938158
vn 0.71893263 0.58044490 -0.38238670
vn 0.72406178 0.59510501 0.34868978
vn 0.25535669 -0.95761767 -0.13327175
vn 0.24789840 -0.96140232 0.11938158
vn 0.71893263 0.58044490 -0.38238670
vn 0.14928520 0.58044490 -0.80049837
vn 0.18613742 -0.97725124 -0.10165072
vn 3.6802738e-2 -0.97697143 -0.21017228
vn 0.14928520 0.58044490 -0.80049837
vn -0.53277703 0.58044490 -0.61581844
vn 3.6802738e-2 -0.97697143 -0.21017228
vn -0.14219327 -0.97670028 -0.16074088
vn -0.53277703 0.58044490 -0.61581844
vn -0.82291380 0.56816624 2.4838124e-16
vn -0.14219327 -0.97670028 -0.16074088
vn -0.22583278 -0.97416608 5.9161541e-17
vn -0.82291380 0.56816624 2.4838124e-16
vn -0.53277703 0.58044490 0.61581844
vn -0.22583278 -0.97416608 5.9161541e-17
vn -0.14183319 -0.97681954 0.16033383
vn -0.53277703 0.58044490 0.61581844
vn 0.14928520 0.58044490 0.80049837
vn -0.14183319 -0.97681954 0.16033383
vn 3.6680942e-2 -0.97712538 0.20947673
vn 0.14928520 0.58044490 0.80049837
vn 0.72406178 0.59510501 0.34868978
vn 3.6680942e-2 -0.97712538 0.20947673
vn 0.17959812 -0.97993062 8.6489897e-2
vn 0.71893263 0.58044490 -0.38238670
vn 0.72406178 0.59510501 0.34868978
vn 0.18613742 -0.97725124 -0.10165072
vn 0.17959812 -0.97993062 8.6489897e-2
vn 0.25535669 -0.95761767 -0.13327175
vn 0.24789840 -0.96140232 0.11938158
vn 0.70580829 0.60699818 -0.36522304
vn 0.70611015 0.62111033 0.34004472
vn 5.4889574e-2 -0.95781689 0.28208852
vn 0.24789840 -0.96140232 0.11938158
vn 0.15452140 0.60699818 0.77953598
vn 0.70611015 0.62111033 0.34004472
vn -0.18528500 -0.95829560 0.21757529
vn 5.4889574e-2 -0.95781689 0.28208852
vn -0.51312326 0.60699818 0.60684243
vn 0.15452140 0.60699818 0.77953598
vn -0.29693384 -0.95489806 6.4236684e-17
vn -0.18528500 -0.95829560 0.21757529
vn -0.80425574 0.59428335 1.5267453e-16
vn -0.51312326 0.60699818 0.60684243
vn -0.18488264 -0.95848045 -0.21710281
vn -0.29693384 -0.95489806 6.4236684e-17
vn -0.51312326 0.60699818 -0.60684243
vn -0.80425574 0.59428335 1.5267453e-16
vn 5.4735207e-2 -0.95805901 -0.28129520
vn -0.18488264 -0.95848045 -0.21710281
vn 0.15452140 0.60699818 -0.77953598
vn -0.51312326 0.60699818 -0.60684243
vn 0.25535669 -0.95761767 -0.13327175
vn 5.4735207e-2 -0.95805901 -0.28129520
vn 0.70580829 0.60699818 -0.36522304
vn 0.15452140 0.60699818 -0.77953598
vn 0.0000000e+0 1.00000000 0.0000000e+0
vn 0.79311305 0.47443772 0.38194311
vn 0.19588275 0.47443772 0.85821838
vn 0.0000000e+0 1.00000000 0.0000000e+0
vn 0.79311305 0.47443772 0.38194311
vn 0.79311305 0.47443772 -0.38194311
vn 0.0000000e+0 1.00000000 0.0000000e+0
vn 0.79311305 0.47443772 -0.38194311
vn 0.19588275 0.47443772 -0.85821838
vn 0.0000000e+0 1.00000000 0.0000000e+0
vn 0.19588275 0.47443772 -0.85821838
vn -0.54885126 0.47443772 -0.68823771
vn 0.0000000e+0 1.00000000 0.0000000e+0
vn -0.54885126 0.47443772 -0.68823771
vn -0.88028907 0.47443772 3.2718526e-16
vn 0.0000000e+0 1.00000000 0.0000000e+0
vn -0.88028907 0.47443772 3.2718526e-16
vn -0.54885126 0.47443772 0.68823771
vn 0.0000000e+0 1.00000000 0.0000000e+0
vn -0.54885126 0.47443772 0.68823771
vn 0.19588275 0.47443772 0.85821838
g cylinder9_default
usemtl default
s 1
f 3//10 26//97 27//100 2//5
f 5//18 24//89 25//92 4//13
f 7//26 22//81 23//84 6//21
f 10//36 31//116 32//121 11//40
f 12//42 33//124 34//129 13//46
f 14//48 35//132 29//108 8//30
f 17//58 24//86 23//83 16//55
f 19//66 26//94 25//91 18//63
f 21//75 28//103 27//99 20//71
f 31//115 30//110 20//72 19//69
f 33//123 32//118 18//64 17//61
f 35//131 34//126 16//56 15//53
f 37//137 38//140 39//143 40//146 41//149 42//152 36//134
s 2
f 1//1 28//104 22//80 7//25
f 2//8 36//136 42//154 3//12
f 4//14 25//93 26//96 3//9
f 5//19 40//147 39//145 6//24
f 8//31 29//109 30//113 9//34
f 11//39 32//120 33//125 12//43
f 13//45 34//128 35//133 14//49
f 15//52 21//76 29//106 35//130
f 16//54 23//82 22//79 15//51
f 18//62 25//90 24//87 17//59
f 20//70 27//98 26//95 19//67
f 32//119 31//114 19//68 18//65
f 34//127 33//122 17//60 16//57
s 3
f 2//6 27//101 28//105 1//2
f 4//15 41//150 40//148 5//20
f 6//22 23//85 24//88 5//17
f 7//27 38//141 37//139 1//4
f 9//32 10//35 11//38 12//41 13//44 14//47 8//29
f 15//50 22//78 28//102 21//74
f 30//111 29//107 21//77 20//73
s 4
f 1//3 37//138 36//135 2//7
f 3//11 42//153 41//151 4//16
f 6//23 39//144 38//142 7//28
f 9//33 30//112 31//117 10//37
o cylinder8
#12 vertices, 8 faces
v 0.25000000 0.65000000 0.0000000e+0
v 0.12500000 0.65000000 0.21650635
v -0.12500000 0.65000000 0.21650635
v -0.25000000 0.65000000 3.0616170e-17
v -0.12500000 0.65000000 -0.21650635
v 0.12500000 0.65000000 -0.21650635
v 0.25000000 -5.0000000e-2 0.0000000e+0
v 0.12500000 -5.0000000e-2 0.21650635
v -0.12500000 -5.0000000e-2 0.21650635
v -0.25000000 -5.0000000e-2 3.0616170e-17
v -0.12500000 -5.0000000e-2 -0.21650635
v 0.12500000 -5.0000000e-2 -0.21650635
vn 0.0000000e+0 1.00000000 0.0000000e+0
vn 0.86602540 0.0000000e+0 -0.50000000
vn 0.86602540 0.0000000e+0 0.50000000
vn 0.0000000e+0 1.00000000 0.0000000e+0
vn 1.1102230e-16 0.0000000e+0 1.00000000
vn 0.86602540 0.0000000e+0 0.50000000
vn 0.0000000e+0 1.00000000 0.0000000e+0
vn -0.86602540 0.0000000e+0 0.50000000
vn 1.1102230e-16 0.0000000e+0 1.00000000
vn 0.0000000e+0 1.00000000 0.0000000e+0
vn -0.86602540 0.0000000e+0 -0.50000000
vn -0.86602540 0.0000000e+0 0.50000000
vn 0.0000000e+0 1.00000000 0.0000000e+0
vn -6.6613381e-16 0.0000000e+0 -1.00000000
vn -0.86602540 0.0000000e+0 -0.50000000
vn 0.0000000e+0 1.00000000 0.0000000e+0
vn 0.86602540 0.0000000e+0 -0.50000000
vn -6.6613381e-16 0.0000000e+0 -1.00000000
vn 0.0000000e+0 -1.00000000 1.0683126e-17
vn 0.86602540 0.0000000e+0 -0.50000000
vn 0.86602540 0.0000000e+0 0.50000000
vn 0.0000000e+0 -1.00000000 1.0683126e-17
vn 1.1102230e-16 0.0000000e+0 1.00000000
vn 0.86602540 0.0000000e+0 0.50000000
vn 0.0000000e+0 -1.00000000 1.0683126e-17
vn -0.86602540 0.0000000e+0 0.50000000
vn 1.1102230e-16 0.0000000e+0 1.00000000
vn 0.0000000e+0 -1.00000000 1.0683126e-17
vn -0.86602540 0.0000000e+0 -0.50000000
vn -0.86602540 0.0000000e+0 0.50000000
vn 0.0000000e+0 -1.00000000 1.0683126e-17
vn -6.6613381e-16 0.0000000e+0 -1.00000000
vn -0.86602540 0.0000000e+0 -0.50000000
vn 0.0000000e+0 -1.00000000 1.0683126e-17
vn 0.86602540 0.0000000e+0 -0.50000000
vn -6.6613381e-16 0.0000000e+0 -1.00000000
g cylinder8_default
usemtl default
s 1
f 43//155 48//170 47//167 46//164 45//161 44//158
f 50//176 51//179 52//182 53//185 54//188 49//173
s 2
f 43//156 49//174 54//189 48//171
f 45//163 51//181 50//177 44//159
f 47//169 53//187 52//183 46//165
s 3
f 44//160 50//178 49//175 43//157
f 46//166 52//184 51//180 45//162
f 48//172 54//190 53//186 47//168
